<svg xmlns="http://www.w3.org/2000/svg" width="45" height="40" viewBox="0 0 50 50">
    <!-- Generator: Sketch 51.1 (57501) - http://www.bohemiancoding.com/sketch -->
    <desc>Created with Sketch.</desc>
    <defs></defs>
    <g id="Page-1" stroke="none" stroke-width="1" fill="none" fill-rule="evenodd">
        <g id="Sun" fill="#65AED5" fill-rule="nonzero">
            <path d="M45.997,25.999 L41.999,25.999 C40.894,25.999 39.999,25.104 39.999,24 C39.999,22.896 40.894,22 41.999,22 L45.997,22 C47.102,22 47.997,22.896 47.997,24 C47.997,25.104 47.103,25.999 45.997,25.999 Z M38.142,12.688 C37.361,13.469 36.093,13.469 35.314,12.688 C34.533,11.907 34.533,10.641 35.314,9.86 L38.142,7.032 C38.921,6.251 40.189,6.251 40.97,7.032 C41.749,7.813 41.749,9.079 40.97,9.86 L38.142,12.688 Z M24.001,35.998 C17.374,35.998 12.001,30.626 12.001,24 C12.001,17.373 17.373,12.001 24.001,12.001 C30.628,12.001 35.999,17.373 35.999,24 C35.999,30.626 30.628,35.998 24.001,35.998 Z M24.001,16.001 C19.583,16.001 16.001,19.582 16.001,24 C16.001,28.417 19.584,31.999 24.001,31.999 C28.418,31.999 31.999,28.417 31.999,24 C31.999,19.582 28.419,16.001 24.001,16.001 Z M24.001,8.002 C22.896,8.002 22.001,7.106 22.001,6.002 L22.001,2.003 C22.001,0.899 22.896,0.003 24.001,0.003 C25.105,0.003 26.001,0.899 26.001,2.003 L26.001,6.002 C26.001,7.106 25.104,8.002 24.001,8.002 Z M9.86,12.688 L7.032,9.86 C6.251,9.079 6.251,7.813 7.032,7.032 C7.813,6.251 9.079,6.251 9.86,7.032 L12.688,9.86 C13.469,10.641 13.469,11.907 12.688,12.688 C11.907,13.469 10.641,13.469 9.86,12.688 Z M8.002,24 C8.002,25.104 7.106,25.999 6.002,25.999 L2.002,25.999 C0.898,25.999 0.003,25.104 0.003,24 C0.003,22.896 0.899,22 2.002,22 L6.002,22 C7.107,22 8.002,22.896 8.002,24 Z M9.86,35.312 C10.641,34.532 11.907,34.532 12.688,35.312 C13.469,36.093 13.469,37.36 12.688,38.14 L9.86,40.968 C9.079,41.749 7.813,41.749 7.032,40.968 C6.251,40.188 6.251,38.921 7.032,38.14 L9.86,35.312 Z M24.001,39.998 C25.105,39.998 26.001,40.893 26.001,41.997 L26.001,45.997 C26.001,47.101 25.105,47.997 24.001,47.997 C22.896,47.997 22.001,47.101 22.001,45.997 L22.001,41.997 C22.001,40.893 22.896,39.998 24.001,39.998 Z M38.142,35.312 L40.97,38.14 C41.749,38.921 41.749,40.188 40.97,40.968 C40.189,41.749 38.921,41.749 38.142,40.968 L35.314,38.14 C34.533,37.36 34.533,36.093 35.314,35.312 C36.093,34.531 37.36,34.531 38.142,35.312 Z" id="Shape"></path>
        </g>
    </g>
</svg>