<svg xmlns="http://www.w3.org/2000/svg" width="45" height="40" viewBox="-2 -13 50 50">
    <!-- Generator: Sketch 51.1 (57501) - http://www.bohemiancoding.com/sketch -->
    <desc>Created with Sketch.</desc>
    <defs></defs>
    <g id="Page-1" stroke="none" stroke-width="1" fill="none" fill-rule="evenodd">
        <g id="Cloud" fill="#65AED5" fill-rule="nonzero">
            <path d="M16.945,32.639 C8.11,32.639 0.947,25.477 0.947,16.641 C0.947,7.805 8.11,0.643 16.945,0.643 C22.949,0.643 28.174,3.955 30.91,8.846 C31.574,8.733 32.248,8.641 32.943,8.641 C39.57,8.641 44.942,14.014 44.942,20.641 C44.942,27.266 39.57,32.639 32.943,32.639 C30.168,32.639 20.143,32.639 16.945,32.639 Z M32.943,28.639 C37.361,28.639 40.943,25.057 40.943,20.641 C40.943,16.223 37.361,12.641 32.943,12.641 C31.343,12.641 29.861,13.122 28.61,13.932 C27.379,8.616 22.636,4.642 16.945,4.642 C10.319,4.642 4.947,10.014 4.947,16.641 C4.947,23.267 10.319,28.639 16.945,28.639 C20.562,28.639 29.924,28.639 32.943,28.639 Z" id="Shape"></path>
        </g>
    </g>
</svg>